<svg width="54" height="54" viewBox="0 0 54 54" fill="none" xmlns="http://www.w3.org/2000/svg">
<path d="M21.375 27C26.3385 27 30.375 22.9635 30.375 18C30.375 13.0365 26.3385 9 21.375 9C16.4115 9 12.375 13.0365 12.375 18C12.375 22.9635 16.4115 27 21.375 27ZM24.75 29.25H18C10.5547 29.25 4.5 35.3047 4.5 42.75V45H38.25V42.75C38.25 35.3047 32.1953 29.25 24.75 29.25Z" fill="#D4D4D4"/>
<path d="M37.3583 24.8581C38.7287 22.5227 39.3205 19.812 39.0481 17.1181C38.6453 13.1041 36.4043 9.5558 32.7413 7.12805L30.2551 10.8766C32.7728 12.5461 34.3051 14.9243 34.5706 17.5681C34.693 18.7968 34.54 20.0373 34.1228 21.1995C33.7056 22.3617 33.0345 23.4163 32.1586 24.2866L29.4766 26.9686L33.1171 28.0373C42.6391 30.8273 42.7493 40.4033 42.7493 40.5001H47.2493C47.2493 36.4748 45.0983 28.6088 37.3583 24.8581Z" fill="#D4D4D4"/>
</svg>
