<svg width="28" height="28" viewBox="0 0 28 28" fill="none" xmlns="http://www.w3.org/2000/svg">
<path fill-rule="evenodd" clip-rule="evenodd" d="M5.75025 20.5998C5.53154 20.8186 5.40867 21.1153 5.40867 21.4247C5.40867 21.734 5.53154 22.0307 5.75025 22.2495C10.3061 26.8053 17.6934 26.8053 22.2493 22.2495C26.8051 17.6937 26.8051 10.3063 22.2493 5.7505C17.6934 1.19467 10.3061 1.19467 5.75025 5.7505C3.84378 7.65107 2.65618 10.1545 2.39025 12.8333H1.16642C0.935709 12.8334 0.710195 12.9018 0.518383 13.03C0.326572 13.1582 0.177075 13.3404 0.0887938 13.5536C0.000512057 13.7667 -0.0225914 14.0013 0.0224041 14.2275C0.0673996 14.4538 0.178474 14.6617 0.341585 14.8248L2.67492 17.1582L2.67725 17.1605C2.78556 17.2688 2.91419 17.3547 3.05576 17.4131C3.19733 17.4716 3.34906 17.5015 3.50223 17.5012C3.6554 17.5009 3.807 17.4703 3.94832 17.4112C4.08964 17.3522 4.21791 17.2658 4.32575 17.157L6.65909 14.8248C6.82227 14.6616 6.93336 14.4536 6.97832 14.2273C7.02328 14.0009 7.00008 13.7662 6.91165 13.553C6.82323 13.3398 6.67355 13.1577 6.48156 13.0295C6.28957 12.9014 6.06389 12.8332 5.83309 12.8333H4.73875C5.00252 10.7408 5.96729 8.7992 7.4758 7.32513C8.98431 5.85106 10.9476 4.9314 13.0457 4.71602C15.1439 4.50065 17.2531 5.00227 19.0296 6.13912C20.8061 7.27598 22.1452 8.98103 22.8286 10.9764C23.512 12.9717 23.4994 15.1397 22.7929 17.127C22.0864 19.1143 20.7276 20.8037 18.938 21.9199C17.1484 23.036 15.0335 23.5131 12.938 23.2734C10.8426 23.0337 8.89005 22.0913 7.39875 20.5998C7.18002 20.3815 6.88357 20.2588 6.5745 20.2588C6.26543 20.2588 5.96899 20.3815 5.75025 20.5998ZM11.6664 9.33333C11.6664 9.02392 11.7893 8.72717 12.0081 8.50838C12.2269 8.28958 12.5237 8.16667 12.8331 8.16667C13.1425 8.16667 13.4393 8.28958 13.658 8.50838C13.8768 8.72717 13.9998 9.02392 13.9998 9.33333V14H18.6664C18.9758 14 19.2726 14.1229 19.4914 14.3417C19.7102 14.5605 19.8331 14.8572 19.8331 15.1667C19.8331 15.4761 19.7102 15.7728 19.4914 15.9916C19.2726 16.2104 18.9758 16.3333 18.6664 16.3333H12.8331C12.5237 16.3333 12.2269 16.2104 12.0081 15.9916C11.7893 15.7728 11.6664 15.4761 11.6664 15.1667V9.33333Z" fill="#343434"/>
</svg>
