<svg width="54" height="54" viewBox="0 0 54 54" fill="none" xmlns="http://www.w3.org/2000/svg">
<path d="M47.25 45C47.25 45.5967 47.0129 46.169 46.591 46.591C46.169 47.0129 45.5967 47.25 45 47.25H9C8.40326 47.25 7.83097 47.0129 7.40901 46.591C6.98705 46.169 6.75 45.5967 6.75 45V21.3502C6.74976 21.0074 6.82789 20.669 6.97841 20.3609C7.12893 20.0529 7.34787 19.7833 7.6185 19.5727L25.6185 5.57324C26.0135 5.266 26.4996 5.09918 27 5.09918C27.5004 5.09918 27.9865 5.266 28.3815 5.57324L46.3815 19.5727C46.6521 19.7833 46.8711 20.0529 47.0216 20.3609C47.1721 20.669 47.2502 21.0074 47.25 21.3502V45ZM24.75 29.25V42.75H29.25V29.25H24.75Z" fill="#D4D4D4"/>
</svg>
