<svg width="101" height="56" viewBox="0 0 101 56" fill="none" xmlns="http://www.w3.org/2000/svg">
<path d="M38.5133 5.41523L47.784 2.67889V33.0742L38.5133 30.661V5.41523ZM33.7063 12.7341H43.7209V20.0312H33.7063V12.7341ZM9.67125 35.3151H47.784V56L13.906 55.8276L9.67125 35.3151ZM33.7063 39.6245L18.7702 39.9117L23.0622 50.4266L38.5133 48.473L33.7063 39.6245ZM7.43942 5.60926H13.906V7.44792C13.906 17.7329 12.3609 27.5583 4.92146 32.2124L0 25.6621C6.23767 21.6401 7.43942 14.6302 7.43942 7.44792V5.60926ZM9.84293 5.60926H16.0806V7.44792C16.0806 14.4003 16.9962 21.6401 23.0622 26.1218L18.7702 32.8444C11.1019 27.8455 9.84293 17.2733 9.84293 7.44792V5.60926ZM21.4599 5.60926H27.7548V7.44792C27.7548 17.2733 26.4958 27.8455 18.7702 32.8444L14.5355 26.1218C20.6015 21.6401 21.4599 14.4003 21.4599 7.44792V5.60926ZM23.6345 5.60926H30.1011V7.44792C30.1011 14.6302 31.3028 21.6401 37.5405 25.6621L32.619 32.2124C25.1796 27.5583 23.6345 17.7329 23.6345 7.44792V5.60926Z" fill="#62D0E8"/>
<path d="M67.2937 30.661H76.5071L77.9994 39.9117L71.0134 42.1958L67.2937 30.661ZM90.642 7.44792L99.8555 2.67889V43.4167L90.642 39.9117V7.44792ZM60.0832 48.473H96.5694L101 55.8276H60.0832V48.473ZM60.0832 39.6245L67.2937 42.1958L69.2966 50.4266H60.0832V39.6245ZM57.508 32.2124L55.6454 25.6621C65.3739 25.6047 76.5644 25.7771 87.7235 24.3406L88.2958 30.8908C76.9077 32.9019 67.122 32.1549 57.508 32.2124ZM80.9708 33.7063H92.5877V39.9117H80.9708V33.7063ZM71.0134 4.34518C78.8534 4.34518 84.4616 8.36724 84.4616 14.1131C84.4616 19.9163 78.8534 23.8235 71.0134 23.8235C63.1162 23.8235 57.508 19.9163 57.508 14.1131C57.508 8.36724 63.1162 4.34518 71.0134 4.34518ZM71.0134 11.0678C68.2093 11.0678 64.587 11.9296 64.587 14.1131C64.587 16.239 68.2093 17.1583 71.0134 17.1583C73.8175 17.1583 76.5071 16.239 76.5071 14.1131C76.5071 11.9296 73.8175 11.0678 71.0134 11.0678Z" fill="#62D0E8"/>
</svg>
