<svg width="54" height="54" viewBox="0 0 54 54" fill="none" xmlns="http://www.w3.org/2000/svg">
<path fill-rule="evenodd" clip-rule="evenodd" d="M24.7498 4.5C21.5151 4.50035 18.3276 5.27558 15.4541 6.76078C12.5805 8.24599 10.1046 10.398 8.23356 13.0365C6.3625 15.6751 5.15075 18.7235 4.69975 21.9266C4.24875 25.1297 4.57163 28.3942 5.64135 31.4468C6.71108 34.4995 8.49652 37.2514 10.8482 39.4724C13.1999 41.6933 16.0494 43.3186 19.1582 44.2121C22.267 45.1056 25.5446 45.2414 28.7167 44.6081C31.8887 43.9748 34.8629 42.5908 37.3903 40.572L45.659 48.8408C46.0834 49.2506 46.6517 49.4774 47.2417 49.4723C47.8316 49.4671 48.3959 49.2305 48.8131 48.8133C49.2303 48.3962 49.4669 47.8318 49.472 47.2419C49.4772 46.652 49.2504 46.0836 48.8405 45.6592L40.5718 37.3905C42.9523 34.4112 44.4431 30.8202 44.8726 27.031C45.3022 23.2417 44.653 19.4082 42.9999 15.9716C41.3467 12.535 38.7567 9.63513 35.5281 7.60566C32.2994 5.57619 28.5633 4.49967 24.7498 4.5ZM11.2498 24.75C11.2498 22.9772 11.599 21.2217 12.2774 19.5838C12.9558 17.9459 13.9502 16.4576 15.2038 15.2041C16.4574 13.9505 17.9456 12.9561 19.5835 12.2776C21.2214 11.5992 22.9769 11.25 24.7498 11.25C26.5226 11.25 28.2781 11.5992 29.916 12.2776C31.5539 12.9561 33.0421 13.9505 34.2957 15.2041C35.5493 16.4576 36.5437 17.9459 37.2221 19.5838C37.9006 21.2217 38.2498 22.9772 38.2498 24.75C38.2498 28.3304 36.8274 31.7642 34.2957 34.2959C31.764 36.8277 28.3302 38.25 24.7498 38.25C21.1693 38.25 17.7356 36.8277 15.2038 34.2959C12.6721 31.7642 11.2498 28.3304 11.2498 24.75Z" fill="#D4D4D4"/>
</svg>
