<svg width="72" height="72" viewBox="0 0 72 72" fill="none" xmlns="http://www.w3.org/2000/svg">
<mask id="mask0_175_211" style="mask-type:alpha" maskUnits="userSpaceOnUse" x="0" y="0" width="72" height="72">
<rect width="72" height="72" fill="#D9D9D9"/>
</mask>
<g mask="url(#mask0_175_211)">
<path d="M18 42C16.35 42 14.9375 41.4125 13.7625 40.2375C12.5875 39.0625 12 37.65 12 36C12 34.35 12.5875 32.9375 13.7625 31.7625C14.9375 30.5875 16.35 30 18 30C19.65 30 21.0625 30.5875 22.2375 31.7625C23.4125 32.9375 24 34.35 24 36C24 37.65 23.4125 39.0625 22.2375 40.2375C21.0625 41.4125 19.65 42 18 42ZM36 42C34.35 42 32.9375 41.4125 31.7625 40.2375C30.5875 39.0625 30 37.65 30 36C30 34.35 30.5875 32.9375 31.7625 31.7625C32.9375 30.5875 34.35 30 36 30C37.65 30 39.0625 30.5875 40.2375 31.7625C41.4125 32.9375 42 34.35 42 36C42 37.65 41.4125 39.0625 40.2375 40.2375C39.0625 41.4125 37.65 42 36 42ZM54 42C52.35 42 50.9375 41.4125 49.7625 40.2375C48.5875 39.0625 48 37.65 48 36C48 34.35 48.5875 32.9375 49.7625 31.7625C50.9375 30.5875 52.35 30 54 30C55.65 30 57.0625 30.5875 58.2375 31.7625C59.4125 32.9375 60 34.35 60 36C60 37.65 59.4125 39.0625 58.2375 40.2375C57.0625 41.4125 55.65 42 54 42Z" fill="#1C1B1F"/>
</g>
</svg>
