<svg width="54" height="54" viewBox="0 0 54 54" fill="none" xmlns="http://www.w3.org/2000/svg">
<path d="M27 9C29.3869 9 31.6761 9.94821 33.364 11.636C35.0518 13.3239 36 15.6131 36 18C36 20.3869 35.0518 22.6761 33.364 24.364C31.6761 26.0518 29.3869 27 27 27C24.6131 27 22.3239 26.0518 20.636 24.364C18.9482 22.6761 18 20.3869 18 18C18 15.6131 18.9482 13.3239 20.636 11.636C22.3239 9.94821 24.6131 9 27 9ZM27 31.5C36.945 31.5 45 35.5275 45 40.5V45H9V40.5C9 35.5275 17.055 31.5 27 31.5Z" fill="#62D0E8"/>
</svg>
